<?xml version="1.0" encoding="utf-8"?>
<!-- Generator: Adobe Illustrator 23.0.5, SVG Export Plug-In . SVG Version: 6.00 Build 0)  -->
<svg version="1.1" id="Layer_1" xmlns="http://www.w3.org/2000/svg" xmlns:xlink="http://www.w3.org/1999/xlink" x="0px" y="0px"
	 viewBox="0 0 800 600" style="enable-background:new 0 0 800 600;" xml:space="preserve">
<style type="text/css">
	.st0{fill:url(#SVGID_1_);}
	.st1{fill:#D9E021;}
	.st2{fill:#B3B3B3;}
	.st3{fill:#FBB03B;}
	.st4{fill:#F15A24;stroke:#F15A24;stroke-miterlimit:10;}
	.st5{fill:none;stroke:#000000;stroke-miterlimit:10;}
	.st6{opacity:0.71;fill:#006837;}
	.st7{opacity:0.79;fill:#006837;}
	.st8{fill:#006837;}
	.st9{fill:url(#SVGID_2_);}
	.st10{opacity:0.83;fill:#006837;}
	.st11{opacity:0.64;fill:#006837;}
	.st12{fill:url(#SVGID_3_);}
	.st13{opacity:0.64;fill:#8CC63F;}
	.st14{fill:#009245;}
	.st15{opacity:0.64;fill:#B3B3B3;}
	.st16{fill:#39B54A;}
	.st17{opacity:0.58;fill:#39B54A;}
	.st18{fill:#999999;}
	.st19{opacity:0.6;fill:url(#SVGID_4_);}
	.st20{opacity:0.65;fill:#D9E021;}
	.st21{fill:url(#SVGID_5_);}
	.st22{fill:url(#SVGID_6_);}
	.st23{fill:url(#SVGID_7_);}
	.st24{fill:url(#SVGID_8_);}
	.st25{fill:url(#SVGID_9_);}
	.st26{fill:url(#SVGID_10_);}
	.st27{fill:url(#SVGID_11_);}
</style>
<g>
	<linearGradient id="SVGID_1_" gradientUnits="userSpaceOnUse" x1="168" y1="151.5" x2="536" y2="151.5">
		<stop  offset="0" style="stop-color:#F2F2F2"/>
		<stop  offset="1" style="stop-color:#E6E6E6"/>
	</linearGradient>
	<path class="st0" d="M496.5,191h-289c-21.72,0-39.5-17.77-39.5-39.5v0c0-21.72,17.77-39.5,39.5-39.5h289
		c21.73,0,39.5,17.77,39.5,39.5v0C536,173.23,518.23,191,496.5,191z"/>
</g>
<g>
	<path class="st1" d="M238,151.5c0,9.27-4.14,17.57-10.67,23.16C222,179.23,215.07,182,207.5,182s-14.5-2.77-19.83-7.34
		c-6.53-5.59-10.67-13.89-10.67-23.16c0-16.84,13.66-30.5,30.5-30.5S238,134.66,238,151.5z"/>
</g>
<circle cx="206" cy="137" r="11"/>
<path d="M212,161.5c0,3.04-2.46,5.5-5.5,5.5s-5.5-2.46-5.5-5.5c0-0.17,0.01-0.34,0.03-0.5h10.94C211.99,161.16,212,161.33,212,161.5
	z"/>
<path class="st2" d="M227.33,174.66C222,179.23,215.07,182,207.5,182s-14.5-2.77-19.83-7.34c2.1-2.9,6.02-5.24,10.94-6.54
	c2.71-0.72,5.72-1.12,8.89-1.12c2.64,0,5.18,0.28,7.51,0.79C220.57,168.99,225.04,171.5,227.33,174.66z"/>
<circle class="st3" cx="206.5" cy="149.5" r="17.5"/>
<path class="st4" d="M212,160c0,3.04-2.46,5.5-5.5,5.5s-5.5-2.46-5.5-5.5c0-0.17,0.01-0.34,0.03-0.5h10.94
	C211.99,159.66,212,159.83,212,160z"/>
<ellipse cx="187.5" cy="147.5" rx="2" ry="5"/>
<ellipse cx="225" cy="147" rx="2" ry="5"/>
<path class="st5" d="M225.17,152c0.22-1.13,0.33-2.3,0.33-3.5c0-10.49-8.51-19-19-19s-19,8.51-19,19c0,7.83,4.74,14.55,11.5,17.45"
	/>
<g>
	<path d="M200.5,165.5c0.55,0,1,0.45,1,1s-0.45,1-1,1s-1-0.45-1-1S199.95,165.5,200.5,165.5 M200.5,165c-0.83,0-1.5,0.67-1.5,1.5
		s0.67,1.5,1.5,1.5s1.5-0.67,1.5-1.5S201.33,165,200.5,165L200.5,165z"/>
</g>
<path class="st6" d="M476.5,137h-196c-3.58,0-6.5-2.93-6.5-6.5l0,0c0-3.58,2.92-6.5,6.5-6.5h196c3.58,0,6.5,2.92,6.5,6.5l0,0
	C483,134.07,480.08,137,476.5,137z"/>
<path class="st7" d="M436.5,158h-156c-3.58,0-6.5-2.93-6.5-6.5l0,0c0-3.57,2.92-6.5,6.5-6.5h156c3.58,0,6.5,2.93,6.5,6.5l0,0
	C443,155.07,440.08,158,436.5,158z"/>
<path class="st7" d="M382.5,179h-101c-3.58,0-6.5-2.93-6.5-6.5l0,0c0-3.57,2.92-6.5,6.5-6.5h101c3.58,0,6.5,2.93,6.5,6.5l0,0
	C389,176.07,386.08,179,382.5,179z"/>
<path class="st8" d="M399.5,179L399.5,179c3.58,0,6.5-2.93,6.5-6.5l0,0c0-3.57-2.92-6.5-6.5-6.5l0,0c-3.58,0-6.5,2.93-6.5,6.5l0,0
	C393,176.07,395.92,179,399.5,179z"/>
<path class="st8" d="M453.5,158L453.5,158c3.58,0,6.5-2.93,6.5-6.5l0,0c0-3.57-2.92-6.5-6.5-6.5l0,0c-3.58,0-6.5,2.93-6.5,6.5l0,0
	C447,155.07,449.92,158,453.5,158z"/>
<path class="st8" d="M470.5,158L470.5,158c3.58,0,6.5-2.93,6.5-6.5l0,0c0-3.57-2.92-6.5-6.5-6.5l0,0c-3.58,0-6.5,2.93-6.5,6.5l0,0
	C464,155.07,466.92,158,470.5,158z"/>
<linearGradient id="SVGID_2_" gradientUnits="userSpaceOnUse" x1="597" y1="369" x2="713" y2="369">
	<stop  offset="0" style="stop-color:#F2F2F2"/>
	<stop  offset="1" style="stop-color:#E6E6E6"/>
</linearGradient>
<path class="st9" d="M701,403h-92c-6.6,0-12-5.4-12-12v-44c0-6.6,5.4-12,12-12h92c6.6,0,12,5.4,12,12v44
	C713,397.6,707.6,403,701,403z"/>
<circle class="st8" cx="629" cy="369" r="9"/>
<circle class="st10" cx="655" cy="369" r="9"/>
<circle class="st11" cx="681" cy="369" r="9"/>
<linearGradient id="SVGID_3_" gradientUnits="userSpaceOnUse" x1="669.69" y1="413.5" x2="696" y2="413.5">
	<stop  offset="0" style="stop-color:#F2F2F2"/>
	<stop  offset="1" style="stop-color:#E6E6E6"/>
</linearGradient>
<polygon class="st12" points="694.29,424 696,424 696,403 669.69,403 "/>
<path class="st8" d="M744.68,551H576.32c-3.49,0-6.32-2.83-6.32-6.32V444.32c0-3.49,2.83-6.32,6.32-6.32h168.36
	c3.49,0,6.32,2.83,6.32,6.32v100.36C751,548.17,748.17,551,744.68,551z"/>
<circle class="st13" cx="659.5" cy="443.5" r="2.5"/>
<rect x="577" y="448" class="st14" width="166" height="94"/>
<polygon class="st15" points="774,590.17 774,593 549,593 573.31,551 748.27,551 "/>
<rect x="614" y="576" class="st16" width="39" height="4"/>
<rect x="655" y="576" class="st16" width="5" height="4"/>
<rect x="663" y="576" class="st16" width="5" height="4"/>
<rect x="671" y="576" class="st16" width="5" height="4"/>
<rect x="619" y="553" class="st16" width="5" height="4"/>
<rect x="626" y="553" class="st16" width="5" height="4"/>
<rect x="633" y="553" class="st16" width="5" height="4"/>
<rect x="640" y="553" class="st17" width="5" height="4"/>
<rect x="647" y="553" class="st17" width="5" height="4"/>
<rect x="679" y="576" class="st17" width="5" height="4"/>
<path class="st18" d="M673,591h-28c-1.1,0-2-0.9-2-2v-6c0-1.1,0.9-2,2-2h28c1.1,0,2,0.9,2,2v6C675,590.1,674.1,591,673,591z"/>
<linearGradient id="SVGID_4_" gradientUnits="userSpaceOnUse" x1="693" y1="502" x2="739" y2="502">
	<stop  offset="0" style="stop-color:#22B573"/>
	<stop  offset="1" style="stop-color:#22B573"/>
	<stop  offset="1" style="stop-color:#E6E6E6"/>
</linearGradient>
<path class="st19" d="M736.32,536h-40.64c-1.47,0-2.68-1.21-2.68-2.68v-62.64c0-1.47,1.21-2.68,2.68-2.68h40.64
	c1.47,0,2.68,1.21,2.68,2.68v62.64C739,534.79,737.79,536,736.32,536z"/>
<circle class="st20" cx="703" cy="481" r="6"/>
<linearGradient id="SVGID_5_" gradientUnits="userSpaceOnUse" x1="712" y1="479.5" x2="735" y2="479.5">
	<stop  offset="0" style="stop-color:#22B573"/>
	<stop  offset="1" style="stop-color:#22B573"/>
	<stop  offset="1" style="stop-color:#E6E6E6"/>
</linearGradient>
<path class="st21" d="M733.5,481h-20c-0.83,0-1.5-0.67-1.5-1.5l0,0c0-0.83,0.67-1.5,1.5-1.5h20c0.83,0,1.5,0.67,1.5,1.5l0,0
	C735,480.33,734.33,481,733.5,481z"/>
<linearGradient id="SVGID_6_" gradientUnits="userSpaceOnUse" x1="712" y1="484.5" x2="735" y2="484.5">
	<stop  offset="0" style="stop-color:#22B573"/>
	<stop  offset="1" style="stop-color:#22B573"/>
	<stop  offset="1" style="stop-color:#E6E6E6"/>
</linearGradient>
<path class="st22" d="M733.5,486h-20c-0.83,0-1.5-0.67-1.5-1.5l0,0c0-0.83,0.67-1.5,1.5-1.5h20c0.83,0,1.5,0.67,1.5,1.5l0,0
	C735,485.33,734.33,486,733.5,486z"/>
<linearGradient id="SVGID_7_" gradientUnits="userSpaceOnUse" x1="698" y1="493.5" x2="721" y2="493.5">
	<stop  offset="0" style="stop-color:#22B573"/>
	<stop  offset="1" style="stop-color:#22B573"/>
	<stop  offset="1" style="stop-color:#E6E6E6"/>
</linearGradient>
<path class="st23" d="M719.5,495h-20c-0.83,0-1.5-0.67-1.5-1.5l0,0c0-0.83,0.67-1.5,1.5-1.5h20c0.83,0,1.5,0.67,1.5,1.5l0,0
	C721,494.33,720.33,495,719.5,495z"/>
<linearGradient id="SVGID_8_" gradientUnits="userSpaceOnUse" x1="723" y1="493.5" x2="726" y2="493.5">
	<stop  offset="0" style="stop-color:#22B573"/>
	<stop  offset="1" style="stop-color:#22B573"/>
	<stop  offset="1" style="stop-color:#E6E6E6"/>
</linearGradient>
<path class="st24" d="M724.5,495L724.5,495c-0.83,0-1.5-0.67-1.5-1.5l0,0c0-0.83,0.67-1.5,1.5-1.5l0,0c0.83,0,1.5,0.67,1.5,1.5l0,0
	C726,494.33,725.33,495,724.5,495z"/>
<linearGradient id="SVGID_9_" gradientUnits="userSpaceOnUse" x1="727" y1="493.5" x2="730" y2="493.5">
	<stop  offset="0" style="stop-color:#22B573"/>
	<stop  offset="1" style="stop-color:#22B573"/>
	<stop  offset="1" style="stop-color:#E6E6E6"/>
</linearGradient>
<path class="st25" d="M728.5,495L728.5,495c-0.83,0-1.5-0.67-1.5-1.5l0,0c0-0.83,0.67-1.5,1.5-1.5l0,0c0.83,0,1.5,0.67,1.5,1.5l0,0
	C730,494.33,729.33,495,728.5,495z"/>
<linearGradient id="SVGID_10_" gradientUnits="userSpaceOnUse" x1="698" y1="499.5" x2="733" y2="499.5">
	<stop  offset="0" style="stop-color:#22B573"/>
	<stop  offset="1" style="stop-color:#22B573"/>
	<stop  offset="1" style="stop-color:#E6E6E6"/>
</linearGradient>
<path class="st26" d="M731.5,501h-32c-0.83,0-1.5-0.67-1.5-1.5l0,0c0-0.83,0.67-1.5,1.5-1.5h32c0.83,0,1.5,0.67,1.5,1.5l0,0
	C733,500.33,732.33,501,731.5,501z"/>
<linearGradient id="SVGID_11_" gradientUnits="userSpaceOnUse" x1="698" y1="505.5" x2="733" y2="505.5">
	<stop  offset="0" style="stop-color:#22B573"/>
	<stop  offset="1" style="stop-color:#22B573"/>
	<stop  offset="1" style="stop-color:#E6E6E6"/>
</linearGradient>
<path class="st27" d="M731.5,507h-32c-0.83,0-1.5-0.67-1.5-1.5l0,0c0-0.83,0.67-1.5,1.5-1.5h32c0.83,0,1.5,0.67,1.5,1.5l0,0
	C733,506.33,732.33,507,731.5,507z"/>
</svg>
